<svg xmlns="http://www.w3.org/2000/svg" width="30.414" height="21.343" viewBox="0 0 30.414 21.343"><defs><style>.a{fill:#fff;}</style></defs><g transform="translate(0 -44.589)"><g transform="translate(0 44.589)"><path class="a" d="M29.787,65.932a.626.626,0,0,1-.559-.346c-.036-.07-2.9-5.385-14.867-5.566v5.287a.626.626,0,0,1-1.006.5L.246,55.757a.624.624,0,0,1,0-.993l13.11-10.046a.625.625,0,0,1,1.006.5v5.571c.316-.02.729-.038,1.215-.038,4.461,0,14.837,1.419,14.837,14.558a.625.625,0,0,1-.483.61A.565.565,0,0,1,29.787,65.932Z" transform="translate(0 -44.589)"/></g></g></svg>